HIERARCHY
ROOT mixamorig:Hips
{
	OFFSET 0.000000 201.639420 0.000000
	CHANNELS 6 Xposition Yposition Zposition Xrotation Yrotation Zrotation
	JOINT mixamorig:Spine
	{
		OFFSET 0.006200 19.524994 -2.481800
		CHANNELS 3 Xrotation Yrotation Zrotation
		JOINT mixamorig:Spine1
		{
			OFFSET -0.000900 22.835007 -2.825400
			CHANNELS 3 Xrotation Yrotation Zrotation
			JOINT mixamorig:Spine2
			{
				OFFSET -0.020600 26.552490 -3.193300
				CHANNELS 3 Xrotation Yrotation Zrotation
				JOINT mixamorig:Neck
				{
					OFFSET -0.060000 30.701813 1.352200
					CHANNELS 3 Xrotation Yrotation Zrotation
					JOINT mixamorig:Head
					{
						OFFSET -0.087200 22.547607 3.670900
						CHANNELS 3 Xrotation Yrotation Zrotation
						JOINT mixamorig:HeadTop_End
						{
							OFFSET -0.830600 40.355194 7.893500
							CHANNELS 3 Xrotation Yrotation Zrotation
							End Site
							{
								OFFSET 0.000000 30.592346 0.000000
							}
						}
						JOINT mixamorig:RightEye
						{
							OFFSET -6.302100 18.118591 16.197100
							CHANNELS 3 Xrotation Yrotation Zrotation
							End Site
							{
								OFFSET 0.000000 30.592346 0.000000
							}
						}
						JOINT mixamorig:LeftEye
						{
							OFFSET 6.741500 18.382690 16.401899
							CHANNELS 3 Xrotation Yrotation Zrotation
							End Site
							{
								OFFSET 0.000000 30.592346 0.000000
							}
						}
					}
				}
				JOINT mixamorig:LeftShoulder
				{
					OFFSET 11.924900 18.230499 1.425400
					CHANNELS 3 Xrotation Yrotation Zrotation
					JOINT mixamorig:LeftArm
					{
						OFFSET 25.435989 -0.697632 -5.229300
						CHANNELS 3 Xrotation Yrotation Zrotation
						JOINT mixamorig:LeftForeArm
						{
							OFFSET 54.684776 0.000000 0.000000
							CHANNELS 3 Xrotation Yrotation Zrotation
							JOINT mixamorig:LeftHand
							{
								OFFSET 55.098175 0.000000 0.000000
								CHANNELS 3 Xrotation Yrotation Zrotation
								JOINT mixamorig:LeftHandMiddle1
								{
									OFFSET 23.369751 0.000000 0.000000
									CHANNELS 3 Xrotation Yrotation Zrotation
									JOINT mixamorig:LeftHandMiddle2
									{
										OFFSET 6.378677 0.000000 0.000000
										CHANNELS 3 Xrotation Yrotation Zrotation
										JOINT mixamorig:LeftHandMiddle3
										{
											OFFSET 6.148331 0.000000 0.000000
											CHANNELS 3 Xrotation Yrotation Zrotation
											JOINT mixamorig:LeftHandMiddle4
											{
												OFFSET 6.582504 0.000000 0.000000
												CHANNELS 3 Xrotation Yrotation Zrotation
												End Site
												{
													OFFSET -1.168900 6.395691 1.028606
												}
											}
										}
									}
								}
								JOINT mixamorig:LeftHandThumb1
								{
									OFFSET 7.235672 -3.848206 5.434273
									CHANNELS 3 Xrotation Yrotation Zrotation
									JOINT mixamorig:LeftHandThumb2
									{
										OFFSET 6.568451 -3.792297 3.792300
										CHANNELS 3 Xrotation Yrotation Zrotation
										JOINT mixamorig:LeftHandThumb3
										{
											OFFSET 6.063080 -3.500519 3.500518
											CHANNELS 3 Xrotation Yrotation Zrotation
											JOINT mixamorig:LeftHandThumb4
											{
												OFFSET 4.793182 -2.767334 2.767349
												CHANNELS 3 Xrotation Yrotation Zrotation
												End Site
												{
													OFFSET 0.101639 6.054260 1.275483
												}
											}
										}
									}
								}
								JOINT mixamorig:LeftHandIndex1
								{
									OFFSET 23.101074 -0.309540 4.992809
									CHANNELS 3 Xrotation Yrotation Zrotation
									JOINT mixamorig:LeftHandIndex2
									{
										OFFSET 6.226883 0.000000 0.000000
										CHANNELS 3 Xrotation Yrotation Zrotation
										JOINT mixamorig:LeftHandIndex3
										{
											OFFSET 6.094330 0.000000 0.000000
											CHANNELS 3 Xrotation Yrotation Zrotation
											JOINT mixamorig:LeftHandIndex4
											{
												OFFSET 5.482605 0.000000 0.000000
												CHANNELS 3 Xrotation Yrotation Zrotation
												End Site
												{
													OFFSET -1.427902 5.233032 0.797164
												}
											}
										}
									}
								}
								JOINT mixamorig:LeftHandRing1
								{
									OFFSET 22.299240 0.021149 -3.964172
									CHANNELS 3 Xrotation Yrotation Zrotation
									JOINT mixamorig:LeftHandRing2
									{
										OFFSET 6.321869 0.000000 0.000000
										CHANNELS 3 Xrotation Yrotation Zrotation
										JOINT mixamorig:LeftHandRing3
										{
											OFFSET 5.899796 0.000000 0.000000
											CHANNELS 3 Xrotation Yrotation Zrotation
											JOINT mixamorig:LeftHandRing4
											{
												OFFSET 6.517899 0.000000 0.000000
												CHANNELS 3 Xrotation Yrotation Zrotation
												End Site
												{
													OFFSET -1.637299 6.232208 0.980890
												}
											}
										}
									}
								}
								JOINT mixamorig:LeftHandPinky1
								{
									OFFSET 20.463791 -0.302338 -8.562233
									CHANNELS 3 Xrotation Yrotation Zrotation
									JOINT mixamorig:LeftHandPinky2
									{
										OFFSET 6.908646 0.000000 0.000000
										CHANNELS 3 Xrotation Yrotation Zrotation
										JOINT mixamorig:LeftHandPinky3
										{
											OFFSET 4.622849 0.000000 0.000000
											CHANNELS 3 Xrotation Yrotation Zrotation
											JOINT mixamorig:LeftHandPinky4
											{
												OFFSET 5.216080 0.000000 0.000000
												CHANNELS 3 Xrotation Yrotation Zrotation
												End Site
												{
													OFFSET -0.606308 5.116241 0.814926
												}
											}
										}
									}
								}
							}
						}
					}
				}
				JOINT mixamorig:RightShoulder
				{
					OFFSET -12.001300 18.284088 1.348900
					CHANNELS 3 Xrotation Yrotation Zrotation
					JOINT mixamorig:RightArm
					{
						OFFSET -25.308500 -0.751312 -5.164599
						CHANNELS 3 Xrotation Yrotation Zrotation
						JOINT mixamorig:RightForeArm
						{
							OFFSET -54.684429 0.000000 0.000000
							CHANNELS 3 Xrotation Yrotation Zrotation
							JOINT mixamorig:RightHand
							{
								OFFSET -55.150291 0.000000 0.000000
								CHANNELS 3 Xrotation Yrotation Zrotation
								JOINT mixamorig:RightHandMiddle1
								{
									OFFSET -23.317566 0.000000 0.000000
									CHANNELS 3 Xrotation Yrotation Zrotation
									JOINT mixamorig:RightHandMiddle2
									{
										OFFSET -6.378403 0.000000 0.000000
										CHANNELS 3 Xrotation Yrotation Zrotation
										JOINT mixamorig:RightHandMiddle3
										{
											OFFSET -6.148193 0.000000 0.000000
											CHANNELS 3 Xrotation Yrotation Zrotation
											JOINT mixamorig:RightHandMiddle4
											{
												OFFSET -6.583389 0.000000 0.000000
												CHANNELS 3 Xrotation Yrotation Zrotation
												End Site
												{
													OFFSET 1.171692 6.395905 1.029786
												}
											}
										}
									}
								}
								JOINT mixamorig:RightHandThumb1
								{
									OFFSET -7.190521 -3.860474 5.435846
									CHANNELS 3 Xrotation Yrotation Zrotation
									JOINT mixamorig:RightHandThumb2
									{
										OFFSET -6.567429 -3.791718 3.791708
										CHANNELS 3 Xrotation Yrotation Zrotation
										JOINT mixamorig:RightHandThumb3
										{
											OFFSET -6.062469 -3.500153 3.500166
											CHANNELS 3 Xrotation Yrotation Zrotation
											JOINT mixamorig:RightHandThumb4
											{
												OFFSET -4.792618 -2.767029 2.767022
												CHANNELS 3 Xrotation Yrotation Zrotation
												End Site
												{
													OFFSET -0.100327 6.053253 1.276754
												}
											}
										}
									}
								}
								JOINT mixamorig:RightHandIndex1
								{
									OFFSET -23.048981 -0.310791 4.992554
									CHANNELS 3 Xrotation Yrotation Zrotation
									JOINT mixamorig:RightHandIndex2
									{
										OFFSET -6.227539 0.000000 0.000000
										CHANNELS 3 Xrotation Yrotation Zrotation
										JOINT mixamorig:RightHandIndex3
										{
											OFFSET -6.095047 0.000000 0.000000
											CHANNELS 3 Xrotation Yrotation Zrotation
											JOINT mixamorig:RightHandIndex4
											{
												OFFSET -5.484772 0.000000 0.000000
												CHANNELS 3 Xrotation Yrotation Zrotation
												End Site
												{
													OFFSET 1.420593 5.237305 0.797056
												}
											}
										}
									}
								}
								JOINT mixamorig:RightHandRing1
								{
									OFFSET -22.246323 0.020569 -3.963762
									CHANNELS 3 Xrotation Yrotation Zrotation
									JOINT mixamorig:RightHandRing2
									{
										OFFSET -6.322128 0.000000 0.000000
										CHANNELS 3 Xrotation Yrotation Zrotation
										JOINT mixamorig:RightHandRing3
										{
											OFFSET -5.900024 0.000000 0.000000
											CHANNELS 3 Xrotation Yrotation Zrotation
											JOINT mixamorig:RightHandRing4
											{
												OFFSET -6.518356 0.000000 0.000000
												CHANNELS 3 Xrotation Yrotation Zrotation
												End Site
												{
													OFFSET 1.636398 6.232697 0.982186
												}
											}
										}
									}
								}
								JOINT mixamorig:RightHandPinky1
								{
									OFFSET -20.411011 -0.303314 -8.561701
									CHANNELS 3 Xrotation Yrotation Zrotation
									JOINT mixamorig:RightHandPinky2
									{
										OFFSET -6.907349 0.000000 0.000000
										CHANNELS 3 Xrotation Yrotation Zrotation
										JOINT mixamorig:RightHandPinky3
										{
											OFFSET -4.623840 0.000000 0.000000
											CHANNELS 3 Xrotation Yrotation Zrotation
											JOINT mixamorig:RightHandPinky4
											{
												OFFSET -5.218353 0.000000 0.000000
												CHANNELS 3 Xrotation Yrotation Zrotation
												End Site
												{
													OFFSET 0.602097 5.118835 0.816273
												}
											}
										}
									}
								}
							}
						}
					}
				}
			}
		}
	}
	JOINT mixamorig:LeftUpLeg
	{
		OFFSET 18.168400 -13.561905 -0.039000
		CHANNELS 3 Xrotation Yrotation Zrotation
		JOINT mixamorig:LeftLeg
		{
			OFFSET 0.577358 -80.825211 -3.695000
			CHANNELS 3 Xrotation Yrotation Zrotation
			JOINT mixamorig:LeftFoot
			{
				OFFSET -0.577356 -83.370262 -6.520700
				CHANNELS 3 Xrotation Yrotation Zrotation
				JOINT mixamorig:LeftToeBase
				{
					OFFSET 0.750401 -20.798306 25.135401
					CHANNELS 3 Xrotation Yrotation Zrotation
					JOINT mixamorig:LeftToe_End
					{
						OFFSET -0.000500 0.001200 19.917799
						CHANNELS 3 Xrotation Yrotation Zrotation
						End Site
						{
							OFFSET 0.000000 19.917805 0.000000
						}
					}
				}
			}
		}
	}
	JOINT mixamorig:RightUpLeg
	{
		OFFSET -18.162500 -13.585098 -0.041000
		CHANNELS 3 Xrotation Yrotation Zrotation
		JOINT mixamorig:RightLeg
		{
			OFFSET -0.595024 -80.945297 -3.631900
			CHANNELS 3 Xrotation Yrotation Zrotation
			JOINT mixamorig:RightFoot
			{
				OFFSET 0.595024 -83.218193 -6.561200
				CHANNELS 3 Xrotation Yrotation Zrotation
				JOINT mixamorig:RightToeBase
				{
					OFFSET -0.753601 -20.807106 25.115000
					CHANNELS 3 Xrotation Yrotation Zrotation
					JOINT mixamorig:RightToe_End
					{
						OFFSET 0.000299 0.001700 19.918200
						CHANNELS 3 Xrotation Yrotation Zrotation
						End Site
						{
							OFFSET 0.000000 19.918203 0.000000
						}
					}
				}
			}
		}
	}
}
MOTION
Frames: 4
Frame Time: 0.033333
64.959915 187.474609 427.951935 148.538842 29.147426 199.205718 15.626947 0.596113 -3.272504 11.179199 1.496552 -1.690588 11.176920 1.458479 -1.755961 -5.323173 6.287502 -1.210495 -58.746703 28.769699 8.223998 -0.000000 -0.000000 0.000001 -0.000000 -0.000000 0.000001 -0.000000 -0.000000 0.000001 0.679289 -4.570061 -5.408210 -7.347343 -16.947853 -52.221219 0.000004 -39.502064 0.000008 -25.552463 -15.892570 19.611223 0.103228 1.190225 -9.913392 0.103899 1.194017 -9.945405 0.025932 0.598308 -4.964163 -0.000002 -0.000001 0.000001 -1.765998 13.580035 7.641511 4.742553 17.876576 1.476431 -0.125156 6.527503 3.024031 0.000003 0.000001 0.000003 0.103558 1.192124 -9.929410 0.103563 1.192123 -9.929402 0.025934 0.598306 -4.964160 -0.000006 -0.000000 -0.000001 0.103557 1.192127 -9.929404 0.103560 1.192128 -9.929399 0.025945 0.598301 -4.964174 -0.000000 0.000001 0.000001 0.787115 5.188581 -9.457053 0.096224 -2.863094 -10.432483 0.025929 0.598306 -4.964172 0.000003 -0.000000 0.000001 1.594503 3.261017 6.782104 -3.990982 33.405000 42.645287 -0.000010 33.641711 0.000018 -1.508932 5.491320 -1.096633 0.104545 -1.203683 9.928036 0.104551 -1.203674 9.928033 0.026180 -0.604115 4.963445 0.000001 -0.000001 0.000003 -2.082006 -13.461648 -8.150994 5.520677 -18.558737 -0.893696 -0.816676 -4.811721 -2.622781 -0.000002 0.000001 -0.000001 0.104546 -1.203684 9.928039 0.104556 -1.203669 9.928036 0.026179 -0.604109 4.963463 -0.000000 -0.000001 0.000000 0.104550 -1.203685 9.928029 0.104556 -1.203678 9.928027 0.026177 -0.604103 4.963466 0.000001 -0.000000 0.000000 0.104555 -1.203688 9.928024 0.104546 -1.203666 9.928053 0.026179 -0.604113 4.963455 0.000001 0.000001 -0.000002 -68.394591 27.662524 21.878655 25.508163 -1.063165 5.103046 12.023530 -0.415385 -8.885617 -0.237610 -0.000000 -0.000001 -0.000000 -0.000000 -0.000000 -66.894593 -20.076288 -15.016432 47.170342 9.285080 -9.823344 -12.448608 7.005266 5.232358 -0.000003 0.000008 -0.000003 0.000000 -0.000001 -0.000000 
65.857224 187.508759 428.574097 151.157810 29.512018 198.717169 15.709505 0.487733 -2.964377 11.298311 1.289824 -1.543752 11.300037 1.227191 -1.591300 -4.701391 6.175771 -2.096394 -56.789625 27.923743 7.735830 -0.000000 -0.000000 0.000000 -0.000000 -0.000000 0.000000 -0.000000 -0.000000 0.000000 0.713063 -3.812087 -5.705422 -10.233117 -22.867610 -49.821384 0.000007 -35.663109 0.000010 -23.015385 -16.767889 16.827069 0.103236 1.190221 -9.913393 0.103897 1.194014 -9.945404 0.025932 0.598307 -4.964163 0.000004 -0.000000 0.000000 -1.765992 13.580033 7.641511 4.742545 17.876574 1.476431 -0.125158 6.527496 3.024025 0.000003 0.000000 -0.000001 0.103566 1.192121 -9.929406 0.103556 1.192123 -9.929403 0.025932 0.598306 -4.964156 -0.000002 -0.000001 0.000001 0.103564 1.192124 -9.929401 0.103567 1.192126 -9.929398 0.025936 0.598300 -4.964173 -0.000002 -0.000001 0.000001 0.787119 5.188580 -9.457053 0.096222 -2.863095 -10.432479 0.025933 0.598307 -4.964172 0.000000 -0.000000 0.000000 1.592949 3.421389 6.456787 -2.599040 33.653271 46.550458 0.000007 26.450848 0.000001 -8.655971 3.202489 0.851968 0.104541 -1.203681 9.928035 0.104558 -1.203675 9.928033 0.026178 -0.604114 4.963448 0.000001 0.000001 -0.000003 -2.082008 -13.461644 -8.150993 5.520679 -18.558736 -0.893698 -0.816676 -4.811727 -2.622784 0.000002 -0.000003 0.000000 0.104544 -1.203683 9.928037 0.104558 -1.203668 9.928033 0.026184 -0.604110 4.963458 0.000002 -0.000001 -0.000002 0.104544 -1.203684 9.928029 0.104561 -1.203679 9.928027 0.026178 -0.604106 4.963466 0.000001 -0.000002 -0.000001 0.104551 -1.203686 9.928023 0.104545 -1.203664 9.928053 0.026180 -0.604112 4.963455 0.000002 0.000000 0.000001 -66.349414 30.712458 22.498300 24.466651 -3.685234 4.918634 12.154975 -0.371446 -8.620266 -0.000010 -0.000001 -0.000000 -0.000000 -0.000000 -0.000000 -64.784351 -18.595400 -14.976199 48.300765 9.321326 -9.820500 -13.293316 5.823480 4.956818 0.000000 -0.000003 0.000003 0.000000 -0.000003 -0.000000 
67.064240 187.401764 428.728638 154.633188 29.323208 197.085423 15.473474 0.365329 -2.270969 11.166927 0.977154 -1.178229 11.168657 0.924270 -1.210392 -5.071593 6.324879 -3.217768 -52.425230 27.064256 8.775296 -0.000000 -0.000000 -0.000001 -0.000000 -0.000000 -0.000001 -0.000000 -0.000000 -0.000001 0.671338 -2.343981 -5.899526 -12.432987 -28.603306 -48.363248 0.000006 -33.652950 0.000021 -23.235107 -16.174286 10.842045 0.103235 1.190226 -9.913391 0.103897 1.194016 -9.945407 0.025936 0.598308 -4.964160 -0.000000 0.000000 0.000000 -1.765990 13.580034 7.641500 4.742545 17.876576 1.476432 -0.125164 6.527499 3.024030 0.000000 0.000002 0.000003 0.103566 1.192125 -9.929410 0.103564 1.192122 -9.929401 0.025931 0.598307 -4.964161 0.000003 0.000001 -0.000000 0.103560 1.192129 -9.929407 0.103563 1.192128 -9.929396 0.025936 0.598303 -4.964173 -0.000004 -0.000001 0.000002 0.787124 5.188582 -9.457058 0.096218 -2.863094 -10.432478 0.025932 0.598305 -4.964172 0.000003 0.000001 0.000001 1.582892 3.503246 6.196150 -1.407466 34.869133 50.172722 0.000003 15.709631 0.000000 -13.046460 10.656888 4.351515 0.104542 -1.203682 9.928038 0.104555 -1.203673 9.928032 0.026179 -0.604118 4.963445 0.000002 0.000000 -0.000003 -2.082009 -13.461646 -8.150994 5.520679 -18.558742 -0.893697 -0.816674 -4.811722 -2.622781 0.000004 0.000001 -0.000001 0.104544 -1.203683 9.928040 0.104558 -1.203669 9.928033 0.026184 -0.604108 4.963461 0.000002 0.000001 0.000001 0.104545 -1.203685 9.928031 0.104556 -1.203677 9.928029 0.026180 -0.604107 4.963465 0.000000 0.000000 0.000001 0.104553 -1.203688 9.928024 0.104545 -1.203666 9.928052 0.026181 -0.604110 4.963452 -0.000001 0.000003 0.000001 -64.455792 32.756129 22.785588 25.060121 -6.643714 5.994265 11.908909 -0.393529 -9.573581 -0.000018 -0.000004 -0.000000 0.000000 -0.000000 0.000000 -61.905112 -17.983471 -15.154272 49.740962 9.473193 -9.825796 -14.653367 4.389532 4.629268 -0.000002 -0.000003 0.000001 0.000000 -0.000001 -0.000000 
68.543335 187.383224 428.533936 158.061806 28.627623 194.841733 14.769089 0.311212 -1.467281 10.672483 0.727584 -0.748173 10.672761 0.704916 -0.773322 -5.253147 6.328548 -3.634672 -48.365550 26.168949 9.368125 -0.000000 -0.000000 -0.000000 -0.000000 -0.000000 -0.000000 -0.000000 -0.000000 -0.000000 0.571947 -1.243206 -5.692288 -13.318044 -32.149830 -48.321273 0.000005 -35.509501 -0.000005 -23.789820 -15.049297 8.076169 0.103231 1.190224 -9.913390 0.103892 1.194017 -9.945404 0.025935 0.598310 -4.964160 -0.000001 -0.000000 0.000001 -1.765994 13.580035 7.641506 4.742544 17.876577 1.476432 -0.125159 6.527500 3.024029 0.000000 -0.000003 -0.000001 0.103559 1.192125 -9.929409 0.103557 1.192124 -9.929403 0.025932 0.598307 -4.964159 0.000000 0.000001 -0.000002 0.103561 1.192128 -9.929402 0.103563 1.192131 -9.929398 0.025936 0.598301 -4.964171 -0.000002 0.000001 0.000002 0.787116 5.188583 -9.457055 0.096228 -2.863095 -10.432480 0.025931 0.598305 -4.964170 0.000000 -0.000001 -0.000000 1.610201 3.599210 6.301136 -0.677433 34.033330 53.540531 0.000010 7.981609 -0.000006 -10.457957 9.115677 10.192125 0.104541 -1.203682 9.928036 0.104555 -1.203679 9.928033 0.026181 -0.604115 4.963451 -0.000001 0.000001 0.000002 -2.082007 -13.461643 -8.150993 5.520676 -18.558737 -0.893695 -0.816673 -4.811724 -2.622783 0.000002 -0.000001 0.000000 0.104545 -1.203684 9.928038 0.104559 -1.203667 9.928030 0.026186 -0.604111 4.963464 0.000002 0.000001 -0.000004 0.104545 -1.203685 9.928027 0.104560 -1.203678 9.928024 0.026178 -0.604103 4.963463 -0.000002 0.000000 0.000001 0.104553 -1.203685 9.928024 0.104545 -1.203667 9.928052 0.026184 -0.604113 4.963451 -0.000002 -0.000000 -0.000001 -61.862963 32.215632 22.508969 25.778292 -7.862325 6.705767 11.531548 -0.456726 -11.173712 -0.000017 0.000002 0.000000 0.000000 0.000000 -0.000000 -58.555014 -18.035432 -14.968559 50.745430 9.636917 -9.834039 -15.977460 2.667590 4.300056 -0.000003 -0.000007 -0.000004 0.000000 -0.000002 -0.000000 
